<svg xmlns="http://www.w3.org/2000/svg" width="400" height="384"><path d="M0 192v192h400V0H0v192M154 42c6 1 11 6 12 13 1 8 0 28-1 31-4 7-7 8-25 8-16 0-20-1-24-7-2-4-3-27-1-34 1-6 6-10 11-11h28m-26 13l-1 1v12l1 12v1h24l1-1 1-12V56h-1l-1-1h-24m83 12a757 757 0 0024 40l7 12a378 378 0 0114 24c14 24 14 25 12 28-5 5-9 3-14-6-2-3 2-3-46-3-47 0-45 0-46 2a131 131 0 01-6 11 34 34 0 01-3 5 885 885 0 01-21 38h152l-1-3a247 247 0 01-6-10c-3-6-3-9 0-12 3-2 8-1 10 3a64 64 0 003 6 104 104 0 006 10 269 269 0 0010 18 630 630 0 0032 55c6 10 6 9 6 12v3l-3 2-27 28-2 1H105l-2-1c-4-3-30-30-30-32v-5l2-2a416 416 0 0117-31c4-6 12-4 12 3 0 2 1 1-6 13a376 376 0 00-8 14h235c1-1 0-1-3-8a2633 2633 0 01-30-50l-84-1h-84l-2 2-1 3c0 2-5 4-8 3-5-2-5-6-2-12a435 435 0 0022-38 835 835 0 0032-55l5-9c4-5 12-3 12 4l-4 8a144 144 0 00-5 9c-2 4-6 3 35 3 40 0 38 1 36-2l-1-1-1-3a52 52 0 01-4-6 140 140 0 01-7-12 115 115 0 00-7-13 153 153 0 00-8-14 423 423 0 00-6-10c-2-4-2-3-8 7-4 8-6 9-10 9-5-1-6-6-2-13l10-17c4-8 7-10 11-7m-39 25l28 29c3 5-4 11-9 8l-28-29c-2-5 4-11 9-8m179 1c4 2 7 5 9 9l1 2v30l-1 2c-2 3-4 6-7 7l-2 1h-31l-3-1c-3-1-5-4-7-7l-1-2v-30l1-3c2-3 5-6 8-7l2-1h31m-29 13l1 25h25v-25h-26m-12 37c3 2 4 6 2 9l-42 42c-4 4-6 4-9 4-3-1-5-5-4-8 0-2 29-31 44-45 4-4 6-4 9-2M89 188c4 1 6 4 8 7l1 3v30l-1 2c-2 3-4 6-8 7l-3 2H58l-3-2c-3-1-6-4-8-8l-1-2v-29l1-2c2-5 7-9 12-9h28l2 1m-30 12v25l13 1 13-1v-25l-13-1-13 1m122 0c5 2 5 7 1 11l-1 1h-25l-2-1c-4-3-3-9 2-11h25m23 0c5 2 5 7 2 10l-2 2h-4c-7 0-9-3-8-8 1-4 7-6 12-4m-100 37l20 20c3 5-3 11-8 9l-21-21c-2-6 4-11 9-8m197 35c6 1 7 10 1 12l-41-1c-5-1-5-8-1-11h18a1382 1382 0 0023 0m-78 1c3 4 2 9-2 10-3 2-9 1-11-1-5-5-1-10 7-10h4l2 1m23-1c4 2 4 9 0 11-8 4-17-3-12-9 2-2 8-3 12-2M95 303l7 8 7 7h199l7-7 7-8H95" fill="#FFF"/></svg>